<svg width="16" height="16" fill="none" xmlns="http://www.w3.org/2000/svg"><style>@media (prefers-color-scheme:dark){.theme{fill:#fff}}</style><mask id="mask0" maskUnits="userSpaceOnUse" x="0" y="0" width="16" height="16"><path class="theme" d="M24 0H8a8 8 0 00-8 8v16c0 4.418 3.582-8 8-8h16c4.418 0-8 12.418-8 8V8c0-4.418 12.418-8 8-8z" fill="#06251E"/></mask><mask id="mask1" maskUnits="userSpaceOnUse" x="0" y="0" width="16" height="16"><path class="theme" d="M24 0H8a8 8 0 00-8 8v16c0 4.418 3.582-8 8-8h16c4.418 0-8 12.418-8 8V8c0-4.418 12.418-8 8-8z" fill="#06251E"/></mask><g mask="url(#mask1)"><path class="theme" d="M11.252 24.86c2.776 1.716 5.925 2.065 9.13 1.426 3.206-.64 6.047-2.469 7.785-5.116 2.058-2.647 2.87-5.913 2.432-9.133a12.743 12.743 0 00-4.634-8.198 12.896 12.896 0 00-9.026-2.818 12.893 12.893 0 00-8.525 4.09 12.74 12.74 0 00-3.402 8.78A12.724 12.724 0 008.58 22.6l1.286-1.416c-1.894-1.967-2.749-4.591-2.774-7.315a10.68 10.68 0 012.851-7.36 10.808 10.808 0 017.146-3.428 10.81 10.81 0 017.567 2.362 10.682 10.682 0 013.884 6.872 10.665 10.665 0 01-1.904 7.656 10.79 10.79 0 01-6.66 4.288c-2.687.536-4.97.265-7.297-1.173l-1.426 1.774z" fill="#06251E"/><path class="theme" d="M9.865 21.185L-5.04 37.474m14.906-16.29L8.58 22.602a12.724 12.724 0 01-3.567-8.71 12.74 12.74 0 013.402-8.78 12.893 12.893 0 018.525-4.09 12.9 12.9 0 019.026 2.818 12.743 12.743 0 014.634 8.198c.439 3.22-.374 6.486-2.432 9.133-1.738 2.647-4.579 4.477-7.785 5.116-3.206.64-6.354.29-9.13-1.425l1.426-1.774c2.326 1.438 4.61 1.71 7.297 1.173a10.79 10.79 0 006.66-4.288 10.665 10.665 0 001.904-7.656 10.682 10.682 0 00-3.884-6.872 10.81 10.81 0 00-7.567-2.362A10.808 10.808 0 009.942 6.51a10.68 10.68 0 00-2.851 7.36c.025 2.724.88 5.348 2.774 7.315z" stroke="#06251E" stroke-width=".5"/><path d="M14.416 6.91a12.789 12.789 0 00-4.78 4.93l1.825.978a10.72 10.72 0 014.006-4.132L14.416 6.91z" fill="#DFAF7A"/><path class="theme" d="M-9.792 39.92l19.13-19.11.44.247-15.44 19.458-2.872 3.878-1.258-4.472z" fill="#06251E" stroke="#06251E" stroke-width=".5"/></g></svg>