<svg width="747" height="662" fill="none" xmlns="http://www.w3.org/2000/svg"><path d="M220.8 342.2h-41.6V407h-34v-64.8H8.4v-30l134.4-192.4h36.4v190.8h41.6v31.6zm-75.6-121.6c0-13.867.267-25.6.8-35.2.533-9.867.933-19.2 1.2-28h-1.6c-2.133 5.067-4.8 10.533-8 16.4-3.2 5.867-6.267 10.8-9.2 14.8l-85.6 122h102.4v-90zm593.6 121.6h-41.6V407h-34v-64.8H526.4v-30l134.4-192.4h36.4v190.8h41.6v31.6zm-75.6-121.6c0-13.867.267-25.6.8-35.2.533-9.867.933-19.2 1.2-28h-1.6c-2.133 5.067-4.8 10.533-8 16.4-3.2 5.867-6.267 10.8-9.2 14.8l-85.6 122h102.4v-90z" fill="#06251E"/><path d="M379.778 476.28V485h-42v-56h40.88v8.72h-30.48v14.56h27.04v8.56h-27.04v15.44h31.6zm48.234 8.72l-11.44-16.4c-.48.053-1.2.08-2.16.08h-12.64V485h-10.4v-56h23.04c4.853 0 9.066.8 12.64 2.4 3.626 1.6 6.4 3.893 8.32 6.88s2.88 6.533 2.88 10.64c0 4.213-1.04 7.84-3.12 10.88-2.027 3.04-4.96 5.307-8.8 6.8l12.88 18.4h-11.2zm-.24-36.08c0-3.573-1.174-6.32-3.52-8.24-2.347-1.92-5.787-2.88-10.32-2.88h-12.16v22.32h12.16c4.533 0 7.973-.96 10.32-2.88 2.346-1.973 3.52-4.747 3.52-8.32zM486.527 485l-11.44-16.4c-.48.053-1.2.08-2.16.08h-12.64V485h-10.4v-56h23.04c4.854 0 9.067.8 12.64 2.4 3.627 1.6 6.4 3.893 8.32 6.88s2.88 6.533 2.88 10.64c0 4.213-1.04 7.84-3.12 10.88-2.026 3.04-4.96 5.307-8.8 6.8l12.88 18.4h-11.2zm-.24-36.08c0-3.573-1.173-6.32-3.52-8.24-2.346-1.92-5.786-2.88-10.32-2.88h-12.16v22.32h12.16c4.534 0 7.974-.96 10.32-2.88 2.347-1.973 3.52-4.747 3.52-8.32zm48.276 36.88c-5.707 0-10.854-1.227-15.44-3.68-4.587-2.507-8.187-5.947-10.8-10.32-2.614-4.427-3.92-9.36-3.92-14.8 0-5.44 1.306-10.347 3.92-14.72 2.613-4.427 6.213-7.867 10.8-10.32 4.586-2.507 9.733-3.76 15.44-3.76 5.706 0 10.853 1.253 15.44 3.76 4.586 2.453 8.186 5.867 10.8 10.24 2.613 4.373 3.92 9.307 3.92 14.8s-1.307 10.427-3.92 14.8c-2.614 4.373-6.214 7.813-10.8 10.32-4.587 2.453-9.734 3.68-15.44 3.68zm0-9.12c3.733 0 7.093-.827 10.08-2.48a18.6 18.6 0 007.04-7.04c1.706-3.04 2.56-6.427 2.56-10.16 0-3.733-.854-7.093-2.56-10.08-1.707-3.04-4.054-5.387-7.04-7.04-2.987-1.707-6.347-2.56-10.08-2.56-3.734 0-7.094.853-10.08 2.56-2.987 1.653-5.334 4-7.04 7.04-1.707 2.987-2.56 6.347-2.56 10.08 0 3.733.853 7.12 2.56 10.16a18.585 18.585 0 007.04 7.04c2.986 1.653 6.346 2.48 10.08 2.48zm77.824 8.32l-11.44-16.4c-.48.053-1.2.08-2.16.08h-12.64V485h-10.4v-56h23.04c4.853 0 9.066.8 12.64 2.4 3.626 1.6 6.4 3.893 8.32 6.88s2.88 6.533 2.88 10.64c0 4.213-1.04 7.84-3.12 10.88-2.027 3.04-4.96 5.307-8.8 6.8l12.88 18.4h-11.2zm-.24-36.08c0-3.573-1.174-6.32-3.52-8.24-2.347-1.92-5.787-2.88-10.32-2.88h-12.16v22.32h12.16c4.533 0 7.973-.96 10.32-2.88 2.346-1.973 3.52-4.747 3.52-8.32z" fill="#CD7009"/><path d="M346.168 505.2c1.456 0 2.72.24 3.792.72 1.088.48 1.92 1.168 2.496 2.064.576.896.864 1.96.864 3.192 0 1.216-.288 2.28-.864 3.192-.576.896-1.408 1.584-2.496 2.064-1.072.48-2.336.72-3.792.72h-3.792V522h-3.12v-16.8h6.912zm-.144 9.312c1.36 0 2.392-.288 3.096-.864.704-.576 1.056-1.4 1.056-2.472s-.352-1.896-1.056-2.472c-.704-.576-1.736-.864-3.096-.864h-3.648v6.672h3.648zm20.464 3.6h-8.4L356.432 522h-3.216l7.56-16.8h3.072l7.584 16.8h-3.264l-1.68-3.888zm-1.032-2.448l-3.168-7.344-3.144 7.344h6.312zm19.35-2.256h2.952v6.696c-.864.688-1.872 1.216-3.024 1.584a11.603 11.603 0 01-3.552.552c-1.712 0-3.256-.368-4.632-1.104-1.376-.752-2.456-1.784-3.24-3.096-.784-1.312-1.176-2.792-1.176-4.44 0-1.648.392-3.128 1.176-4.44a8.206 8.206 0 013.24-3.072c1.392-.752 2.952-1.128 4.68-1.128 1.408 0 2.688.232 3.84.696a7.535 7.535 0 012.904 2.04l-1.968 1.92c-1.28-1.28-2.824-1.92-4.632-1.92-1.184 0-2.24.248-3.168.744a5.53 5.53 0 00-2.16 2.088c-.512.896-.768 1.92-.768 3.072 0 1.12.256 2.128.768 3.024a5.704 5.704 0 002.16 2.112c.928.512 1.976.768 3.144.768 1.312 0 2.464-.288 3.456-.864v-5.232zm19.667 5.976V522h-12.6v-16.8h12.264v2.616h-9.144v4.368h8.112v2.568h-8.112v4.632h9.48zm25.039-14.184V522h-2.568l-9.264-11.376V522h-3.096v-16.8h2.568l9.264 11.376V505.2h3.096zm12.35 17.04c-1.712 0-3.256-.368-4.632-1.104-1.376-.752-2.456-1.784-3.24-3.096-.784-1.328-1.176-2.808-1.176-4.44 0-1.632.392-3.104 1.176-4.416a8.155 8.155 0 013.24-3.096c1.376-.752 2.92-1.128 4.632-1.128 1.712 0 3.256.376 4.632 1.128a8.206 8.206 0 013.24 3.072c.784 1.312 1.176 2.792 1.176 4.44 0 1.648-.392 3.128-1.176 4.44-.784 1.312-1.864 2.344-3.24 3.096-1.376.736-2.92 1.104-4.632 1.104zm0-2.736c1.12 0 2.128-.248 3.024-.744a5.578 5.578 0 002.112-2.112c.512-.912.768-1.928.768-3.048s-.256-2.128-.768-3.024a5.363 5.363 0 00-2.112-2.112c-.896-.512-1.904-.768-3.024-.768s-2.128.256-3.024.768c-.896.496-1.6 1.2-2.112 2.112-.512.896-.768 1.904-.768 3.024s.256 2.136.768 3.048a5.578 5.578 0 002.112 2.112c.896.496 1.904.744 3.024.744zm15.529-11.664h-5.568v-2.64h14.256v2.64h-5.568V522h-3.12v-14.16zm20.782-.024v5.112h8.112v2.64h-8.112V522h-3.12v-16.8h12.264v2.616h-9.144zm19.822 14.424c-1.712 0-3.256-.368-4.632-1.104-1.376-.752-2.456-1.784-3.24-3.096-.784-1.328-1.176-2.808-1.176-4.44 0-1.632.392-3.104 1.176-4.416a8.155 8.155 0 013.24-3.096c1.376-.752 2.92-1.128 4.632-1.128 1.712 0 3.256.376 4.632 1.128a8.206 8.206 0 013.24 3.072c.784 1.312 1.176 2.792 1.176 4.44 0 1.648-.392 3.128-1.176 4.44-.784 1.312-1.864 2.344-3.24 3.096-1.376.736-2.92 1.104-4.632 1.104zm0-2.736c1.12 0 2.128-.248 3.024-.744a5.578 5.578 0 002.112-2.112c.512-.912.768-1.928.768-3.048s-.256-2.128-.768-3.024a5.363 5.363 0 00-2.112-2.112c-.896-.512-1.904-.768-3.024-.768s-2.128.256-3.024.768c-.896.496-1.6 1.2-2.112 2.112-.512.896-.768 1.904-.768 3.024s.256 2.136.768 3.048a5.578 5.578 0 002.112 2.112c.896.496 1.904.744 3.024.744zm19.579 2.736c-2.32 0-4.128-.648-5.424-1.944-1.296-1.312-1.944-3.184-1.944-5.616v-9.48h3.12v9.36c0 3.296 1.424 4.944 4.272 4.944 2.832 0 4.248-1.648 4.248-4.944v-9.36h3.072v9.48c0 2.432-.648 4.304-1.944 5.616-1.28 1.296-3.08 1.944-5.4 1.944zm26.641-17.04V522h-2.568l-9.264-11.376V522h-3.096v-16.8h2.568l9.264 11.376V505.2h3.096zm4.502 0h7.344c1.792 0 3.384.352 4.776 1.056 1.392.688 2.472 1.672 3.24 2.952.768 1.264 1.152 2.728 1.152 4.392 0 1.664-.384 3.136-1.152 4.416-.768 1.264-1.848 2.248-3.24 2.952-1.392.688-2.984 1.032-4.776 1.032h-7.344v-16.8zm7.2 14.16c1.232 0 2.312-.232 3.24-.696.944-.48 1.664-1.152 2.16-2.016.512-.88.768-1.896.768-3.048 0-1.152-.256-2.16-.768-3.024-.496-.88-1.216-1.552-2.16-2.016-.928-.48-2.008-.72-3.24-.72h-4.08v11.52h4.08z" fill="#06251E"/><path fill-rule="evenodd" clip-rule="evenodd" d="M446.199 330.934c-24.568 15.995-51.902 23.725-80.606 19.046l6.047-19.276c24.061 3.922 43.938-1.535 64.533-14.943s35.378-33.936 41.34-57.404c5.962-23.469 2.655-48.114-9.248-68.918-11.903-20.804-31.508-36.204-54.822-43.064-23.315-6.86-48.587-4.665-70.671 6.138-22.085 10.804-39.323 29.404-48.204 52.013-8.881 22.61-8.737 47.53.401 69.686 9.138 22.157 21.899 39.386 44.101 49.076l-6.206 16.04a75.677 75.677 0 01-.708-.312l-92.235 322.922-23.614-49.406 114.255-274.239c-25.216-11.699-42.229-31.265-52.812-56.924-10.901-26.432-11.072-56.16-.477-83.132 10.594-26.972 31.157-49.16 57.503-62.048 26.346-12.888 56.494-15.507 84.307-7.323 27.813 8.184 51.2 26.555 65.399 51.373 14.2 24.818 18.145 54.218 11.033 82.215-7.113 27.996-24.748 52.485-49.316 68.48z" fill="#06251E"/><path d="M319.405 233.784c4.394-18.704 15.9-35.777 32.584-47.476" stroke="#CD7009" stroke-width="14" stroke-linecap="round"/></svg>